<svg width="30" height="32" viewBox="0 0 30 32" fill="none" xmlns="http://www.w3.org/2000/svg">
<path fill-rule="evenodd" clip-rule="evenodd" d="M15.6732 31.3352C18.7019 29.7836 29.8395 23.4389 29.8395 13.9873C29.8395 5.59491 22.8776 0 14.9198 0C7.22862 0 0 5.59491 0 13.9873C0 23.4389 11.1376 29.7836 14.1663 31.3352C14.3992 31.4556 14.6576 31.5184 14.9198 31.5184C15.1819 31.5184 15.4403 31.4556 15.6732 31.3352ZM14.489 20.0615L9.2689 14.5654C8.94098 14.2173 8.69097 13.8032 8.53551 13.3509C8.38004 12.8986 8.32269 12.4184 8.36727 11.9422C8.41184 11.466 8.55733 11.0048 8.79403 10.5892C9.03074 10.1736 9.35325 9.81316 9.74009 9.53191C10.1269 9.25065 10.5692 9.05501 11.0376 8.958C11.5059 8.86099 11.9895 8.86484 12.4563 8.96928C12.923 9.07373 13.3621 9.27638 13.7445 9.56375C14.1268 9.85112 14.4435 10.2166 14.6736 10.6359L14.8041 10.8746C14.8152 10.8957 14.8318 10.9134 14.8522 10.9257C14.8726 10.9381 14.8959 10.9446 14.9198 10.9446C14.9436 10.9446 14.9669 10.9381 14.9873 10.9257C15.0077 10.9134 15.0243 10.8957 15.0354 10.8746L15.1659 10.6359C16.3931 8.37558 19.599 8.26741 20.9735 10.442C21.7996 11.7474 21.6337 13.4446 20.5706 14.5636L15.3506 20.0596C15.179 20.2405 15.0913 20.3319 14.9869 20.3524C14.9425 20.3605 14.897 20.3605 14.8526 20.3524C14.7482 20.3319 14.6605 20.2405 14.489 20.0596" fill="white"/>
</svg>
