<svg width="32" height="32" viewBox="0 0 32 32" fill="none" xmlns="http://www.w3.org/2000/svg">
<path fill-rule="evenodd" clip-rule="evenodd" d="M32 16C32 20.2435 30.3143 24.3131 27.3137 27.3137C24.3131 30.3143 20.2435 32 16 32C11.7565 32 7.68687 30.3143 4.68629 27.3137C1.68571 24.3131 0 20.2435 0 16C0 11.7565 1.68571 7.68687 4.68629 4.68629C7.68687 1.68571 11.7565 0 16 0C20.2435 0 24.3131 1.68571 27.3137 4.68629C30.3143 7.68687 32 11.7565 32 16ZM14.8571 10.5714C13.7205 10.5714 12.6304 11.023 11.8267 11.8267C11.023 12.6304 10.5714 13.7205 10.5714 14.8571C10.5714 15.9938 11.023 17.0839 11.8267 17.8876C12.6304 18.6913 13.7205 19.1429 14.8571 19.1429C15.9938 19.1429 17.0839 18.6913 17.8876 17.8876C18.6913 17.0839 19.1429 15.9938 19.1429 14.8571C19.1429 13.7205 18.6913 12.6304 17.8876 11.8267C17.0839 11.023 15.9938 10.5714 14.8571 10.5714ZM7.71429 14.8571C7.71424 13.7433 7.9747 12.6448 8.47484 11.6496C8.97499 10.6543 9.70098 9.78979 10.5948 9.12511C11.4886 8.46043 12.5255 8.014 13.6226 7.82149C14.7197 7.62897 15.8466 7.6957 16.9134 8.01635C17.9801 8.337 18.957 8.90268 19.7661 9.66819C20.5753 10.4337 21.1942 11.3779 21.5734 12.4252C21.9525 13.4725 22.0815 14.594 21.95 15.7001C21.8185 16.8062 21.4302 17.8662 20.816 18.7954L23.8674 21.8469C24.1354 22.1148 24.2859 22.4782 24.2859 22.8571C24.2859 23.2361 24.1354 23.5995 23.8674 23.8674C23.5995 24.1354 23.2361 24.2859 22.8571 24.2859C22.4782 24.2859 22.1148 24.1354 21.8469 23.8674L18.7954 20.816C17.7189 21.5275 16.4697 21.934 15.1806 21.9925C13.8915 22.0509 12.6107 21.7591 11.4742 21.1479C10.3377 20.5367 9.38798 19.6291 8.72595 18.5215C8.06392 17.4138 7.71432 16.1476 7.71429 14.8571Z" fill="white"/>
</svg>
