<svg width="32" height="32" viewBox="0 0 32 32" fill="none" xmlns="http://www.w3.org/2000/svg">
<path d="M15.9855 0C7.16148 0 0 7.16148 0 15.9855C0 24.8094 7.16148 31.9709 15.9855 31.9709C24.8094 31.9709 31.9709 24.8094 31.9709 15.9855C31.9709 7.16148 24.8094 0 15.9855 0ZM15.9855 6.39418C19.0706 6.39418 21.5804 8.9039 21.5804 11.9891C21.5804 15.0743 19.0706 17.584 15.9855 17.584C12.9003 17.584 10.3905 15.0743 10.3905 11.9891C10.3905 8.9039 12.9003 6.39418 15.9855 6.39418ZM15.9855 28.7738C12.7404 28.7738 8.9039 27.463 6.17039 24.17C8.97076 21.974 12.4267 20.7805 15.9855 20.7805C19.5442 20.7805 23.0002 21.974 25.8005 24.17C23.067 27.463 19.2305 28.7738 15.9855 28.7738Z" fill="white"/>
</svg>
