<svg width="46" height="88" viewBox="0 0 46 88" fill="none" xmlns="http://www.w3.org/2000/svg">
<path d="M7.85955 43.7752L45.0077 5.59461C45.3136 5.28692 45.5554 4.92162 45.7192 4.51986C45.8829 4.11809 45.9654 3.68784 45.9618 3.25399C45.9582 2.82014 45.8686 2.39132 45.6982 1.99233C45.5277 1.59334 45.2799 1.23212 44.9689 0.929553C44.658 0.626989 44.2901 0.389096 43.8866 0.229641C43.4831 0.0701865 43.052 -0.00766417 42.6182 0.000594568C42.1844 0.00885331 41.7566 0.103058 41.3594 0.277755C40.9623 0.452453 40.6038 0.704176 40.3045 1.01836L0.92955 41.4871C0.33358 42.0997 0.00012207 42.9206 0.00012207 43.7752C0.00012207 44.6299 0.33358 45.4508 0.92955 46.0634L40.3045 86.5321C40.6038 86.8463 40.9623 87.098 41.3594 87.2727C41.7566 87.4474 42.1844 87.5416 42.6182 87.5499C43.052 87.5581 43.4831 87.4803 43.8866 87.3208C44.2901 87.1614 44.658 86.9235 44.9689 86.6209C45.2799 86.3184 45.5277 85.9571 45.6982 85.5581C45.8686 85.1591 45.9582 84.7303 45.9618 84.2965C45.9654 83.8626 45.8829 83.4324 45.7192 83.0306C45.5554 82.6288 45.3136 82.2635 45.0077 81.9559L7.85955 43.7752Z" fill="#494848"/>
</svg>
