<svg width="46" height="88" viewBox="0 0 46 88" fill="none" xmlns="http://www.w3.org/2000/svg">
<path d="M38.1024 43.7752L0.954241 5.59461C0.648358 5.28692 0.406529 4.92162 0.242755 4.51986C0.0789802 4.11809 -0.00349097 3.68784 0.000113232 3.25399C0.00371744 2.82014 0.0933273 2.39132 0.263754 1.99233C0.434181 1.59334 0.682041 1.23212 0.992993 0.929553C1.30395 0.626989 1.67182 0.389096 2.07531 0.229641C2.47881 0.0701865 2.90993 -0.00766417 3.34371 0.000594568C3.77749 0.00885331 4.20534 0.103058 4.60247 0.277755C4.99961 0.452453 5.35815 0.704176 5.65736 1.01836L45.0324 41.4871C45.6283 42.0997 45.9618 42.9206 45.9618 43.7752C45.9618 44.6299 45.6283 45.4508 45.0324 46.0634L5.65736 86.5321C5.35815 86.8463 4.99961 87.098 4.60247 87.2727C4.20534 87.4474 3.77749 87.5416 3.34371 87.5499C2.90993 87.5581 2.47881 87.4803 2.07531 87.3208C1.67182 87.1614 1.30395 86.9235 0.992993 86.6209C0.682041 86.3184 0.434181 85.9571 0.263754 85.5581C0.0933273 85.1591 0.00371744 84.7303 0.000113232 84.2965C-0.00349097 83.8626 0.0789802 83.4324 0.242755 83.0306C0.406529 82.6288 0.648358 82.2635 0.954241 81.9559L38.1024 43.7752Z" fill="#494848"/>
</svg>
