<svg width="194" height="48" viewBox="0 0 194 48" fill="none" xmlns="http://www.w3.org/2000/svg">
<path d="M14.0625 4.21875H13.5C10.6562 4.21875 8.51562 4.86719 7.07812 6.16406C5.34375 7.72656 4.47656 10.3125 4.47656 13.9219C4.47656 14.9219 4.58594 15.7188 4.80469 16.3125C4.86719 16.5156 4.94531 16.6953 5.03906 16.8516C5.10156 16.9609 5.13281 17.0703 5.13281 17.1797C3.39844 17.1797 2.13281 16.8359 1.33594 16.1484C0.445312 15.3984 0 14.1953 0 12.5391C0 10.8828 0.304688 9.3125 0.914062 7.82812C1.53906 6.32812 2.48438 5.01562 3.75 3.89062C5.10938 2.67188 6.83594 1.72656 8.92969 1.05469C11.0391 0.382812 13.5234 0.046875 16.3828 0.046875C18.0234 0.046875 19.5938 0.140625 21.0938 0.328125C21.5625 0.375 22.1719 0.460938 22.9219 0.585938C24.1719 0.820312 25.375 0.976563 26.5312 1.05469C27.0938 1.11719 27.8047 1.14844 28.6641 1.14844C29.7266 1.14844 30.7422 1.05469 31.7109 0.867188C32.6797 0.679688 33.5234 0.4375 34.2422 0.140625C34.1641 2.23437 33.625 3.77344 32.625 4.75781C31.6406 5.74219 30.1797 6.23438 28.2422 6.23438C27.1953 6.23438 26.1406 6.14844 25.0781 5.97656C24.0156 5.80469 22.5859 5.53906 20.7891 5.17969L14.1562 36H7.26562L14.0625 4.21875ZM28.5938 36.2812C26.7656 36.2812 25.2891 35.7109 24.1641 34.5703C22.8516 33.2266 22.1953 31.2266 22.1953 28.5703C22.1953 27.4453 22.3125 26.2578 22.5469 25.0078C22.7656 23.7578 23.0938 22.5234 23.5312 21.3047C24.5312 18.5547 25.8984 16.3359 27.6328 14.6484C29.6328 12.7266 31.9375 11.7656 34.5469 11.7656C35.8438 11.7656 36.8125 11.9922 37.4531 12.4453C38.1094 12.8828 38.4375 13.4688 38.4375 14.2031V14.5547L38.9531 12H45.8672L42.4219 28.3125C42.2812 28.7812 42.2109 29.2969 42.2109 29.8594C42.2109 31.2344 42.8672 31.9219 44.1797 31.9219C45.0547 31.9219 45.8516 31.4766 46.5703 30.5859C47.1797 29.8359 47.6797 28.7734 48.0703 27.3984H50.0859C49.2266 29.8359 48.1875 31.7656 46.9688 33.1875C45.9375 34.3594 44.7734 35.2031 43.4766 35.7188C42.5234 36.0938 41.5156 36.2812 40.4531 36.2812C39.0938 36.2812 38.0078 35.9141 37.1953 35.1797C36.3984 34.4297 35.9141 33.3281 35.7422 31.875C34.8359 33.1562 33.8828 34.1562 32.8828 34.875C31.6016 35.8125 30.1719 36.2812 28.5938 36.2812ZM31.7109 31.6406C32.0703 31.6406 32.4453 31.5469 32.8359 31.3594C33.2422 31.1719 33.6328 30.9062 34.0078 30.5625C34.8516 29.75 35.4141 28.6953 35.6953 27.3984L37.9922 16.5703C37.9922 16.4141 37.9531 16.2344 37.875 16.0312C37.8125 15.8125 37.7188 15.6094 37.5938 15.4219C37.2188 14.9688 36.6953 14.7422 36.0234 14.7422C35.3828 14.7422 34.7578 14.9531 34.1484 15.375C33.5547 15.7969 32.9922 16.3828 32.4609 17.1328C31.5234 18.4922 30.75 20.2656 30.1406 22.4531C29.8594 23.4219 29.6484 24.3828 29.5078 25.3359C29.3672 26.2734 29.2969 27.125 29.2969 27.8906C29.2969 29.4844 29.5938 30.5625 30.1875 31.125C30.3906 31.3438 30.6172 31.4844 30.8672 31.5469C31.1172 31.6094 31.3984 31.6406 31.7109 31.6406ZM53.5547 36.2812C52.3984 36.2812 51.375 36.1094 50.4844 35.7656C49.5938 35.4062 48.8438 34.9141 48.2344 34.2891C47.6719 33.7109 47.25 33.0703 46.9688 32.3672C46.6875 31.6484 46.5469 30.9062 46.5469 30.1406C46.5469 29.0938 46.8125 28.1484 47.3438 27.3047C47.8125 26.5547 48.3984 26.0156 49.1016 25.6875C50.3516 23.4688 51.4375 21.2188 52.3594 18.9375C53.2812 16.6562 54.1641 14.1641 55.0078 11.4609L62.1094 10.5234C62.2969 14.5859 62.4688 17.7031 62.625 19.875C62.7812 22.1094 62.9141 23.75 63.0234 24.7969C63.1172 26.0156 63.1641 27.0781 63.1641 27.9844C63.1641 28.7969 63.1016 29.4062 62.9766 29.8125C64.4141 28.9688 65.5625 28.1641 66.4219 27.3984H68.4375C67.2969 28.7266 66.1172 29.8672 64.8984 30.8203C63.6953 31.7734 62.4297 32.6328 61.1016 33.3984C60.1484 34.3984 58.9531 35.1406 57.5156 35.625C56.2656 36.0625 54.9453 36.2812 53.5547 36.2812ZM52.0312 32.4844C53.2344 32.4844 54.1953 32.1562 54.9141 31.5C55.7734 30.7188 56.2031 29.5625 56.2031 28.0312C56.2031 27.3906 56.1641 26.5859 56.0859 25.6172L55.9688 24.1875C55.8281 22.9531 55.6875 21.5234 55.5469 19.8984L55.2891 16.6641C54.8359 18.1172 54.2969 19.5625 53.6719 21C53.0469 22.4219 52.2891 24 51.3984 25.7344C52.1328 26.1406 52.5 26.6953 52.5 27.3984C52.5 28.0234 52.3125 28.5625 51.9375 29.0156C51.5312 29.5156 51.0156 29.7656 50.3906 29.7656C50.0781 29.7656 49.8125 29.7266 49.5938 29.6484C49.3906 29.5547 49.2266 29.3828 49.1016 29.1328C49.1016 30.2891 49.3281 31.1406 49.7812 31.6875C50.2344 32.2188 50.9844 32.4844 52.0312 32.4844ZM71.1797 36.2812C69.6484 36.2812 68.4375 35.8281 67.5469 34.9219C66.5469 33.9219 66.0469 32.4609 66.0469 30.5391C66.0469 29.6328 66.1719 28.5859 66.4219 27.3984L69.3047 13.9219H67.7109L68.1094 12H69.6797L71.1328 5.36719L78.2344 4.40625L76.5938 12H79.4766L79.1016 13.9219H76.2188L73.1484 28.3125C73.0234 28.7188 72.9609 29.2344 72.9609 29.8594C72.9609 30.5156 73.1094 30.9766 73.4062 31.2422C73.7188 31.5078 74.2188 31.6406 74.9062 31.6406C75.375 31.6406 75.8281 31.5391 76.2656 31.3359C76.7188 31.1172 77.1328 30.8203 77.5078 30.4453C78.2734 29.6797 78.8516 28.6641 79.2422 27.3984H81.2578C80.3984 29.8203 79.3203 31.75 78.0234 33.1875C76.9297 34.3594 75.6953 35.2031 74.3203 35.7188C73.3203 36.0938 72.2734 36.2812 71.1797 36.2812ZM86.7422 48C85.9922 48 85.2891 47.8984 84.6328 47.6953C83.9922 47.5078 83.4375 47.2188 82.9688 46.8281C82.4688 46.4375 82.0781 45.9453 81.7969 45.3516C81.5156 44.7734 81.375 44.1016 81.375 43.3359C81.375 41.5234 82.2266 39.9688 83.9297 38.6719C85.2109 37.7188 86.9688 36.8906 89.2031 36.1875L89.7891 33.6094C88.8516 34.6406 87.8359 35.3672 86.7422 35.7891C85.8984 36.1172 84.9922 36.2812 84.0234 36.2812C82.4922 36.2812 81.2812 35.8281 80.3906 34.9219C79.3906 33.9219 78.8906 32.4609 78.8906 30.5391C78.8906 29.6328 79.0156 28.5859 79.2656 27.3984L82.5234 12H89.4375L85.9922 28.3125C85.8984 28.7031 85.8516 29.1094 85.8516 29.5312C85.8516 30.1406 85.9531 30.625 86.1562 30.9844C86.3906 31.4219 86.7656 31.6406 87.2812 31.6406C88.125 31.6406 88.8828 31.2656 89.5547 30.5156C90.1328 29.875 90.625 28.9375 91.0312 27.7031L94.3828 12H101.297L96.5391 34.2656C98.0547 33.7656 99.2656 33.0156 100.172 32.0156C101.156 30.9375 101.961 29.3984 102.586 27.3984H104.602C103.742 30.2422 102.461 32.4375 100.758 33.9844C99.5078 35.1094 97.9609 35.9062 96.1172 36.375L95.3906 39.8438C94.7812 42.9062 93.5625 45.125 91.7344 46.5C90.4062 47.5 88.7422 48 86.7422 48ZM85.6406 44.25C86.125 44.25 86.6406 43.8984 87.1875 43.1953C87.7188 42.5078 88.1328 41.4375 88.4297 39.9844L88.7109 38.6016C87.2578 39.1484 86.1719 39.7031 85.4531 40.2656C84.5 40.9844 84.0234 41.7891 84.0234 42.6797C84.0234 43.1016 84.1562 43.4531 84.4219 43.7344C84.7188 44.0781 85.125 44.25 85.6406 44.25ZM121.195 36.8203C119.867 36.8203 118.82 36.5938 118.055 36.1406C116.977 35.5156 116.438 34.5547 116.438 33.2578C116.438 32.3984 116.641 31.4688 117.047 30.4688C117.641 31.1094 118.188 31.5625 118.688 31.8281C119.188 32.0781 119.719 32.2031 120.281 32.2031C121.875 32.2031 123.102 31.2188 123.961 29.25C124.32 28.4531 124.586 27.5547 124.758 26.5547C124.93 25.5391 125.016 24.5469 125.016 23.5781C125.016 21.7344 124.695 20.2969 124.055 19.2656C123.289 18.0625 122.094 17.4609 120.469 17.4609C119.609 17.4609 118.875 17.5156 118.266 17.625L114.328 36H107.414L113.93 5.46094L121.031 4.52344L118.781 15.1641H119.062C119.984 15.1641 120.867 14.9375 121.711 14.4844C122.555 14.0312 123.297 13.4141 123.938 12.6328C124.562 11.8672 125.055 11.0234 125.414 10.1016C125.789 9.17969 125.977 8.27344 125.977 7.38281C125.977 6.69531 125.852 6.04688 125.602 5.4375C125.367 4.8125 125.008 4.26562 124.523 3.79688C123.414 2.73438 121.789 2.20312 119.648 2.20312C117.68 2.20312 115.812 2.625 114.047 3.46875C112.078 4.42188 110.57 5.71094 109.523 7.33594C108.273 9.22656 107.648 11.4063 107.648 13.875C107.648 14.9062 107.766 15.7031 108 16.2656C108.062 16.4688 108.141 16.6484 108.234 16.8047C108.297 16.9141 108.328 17.0234 108.328 17.1328C106.625 17.1328 105.344 16.7969 104.484 16.125C103.625 15.4375 103.195 14.3047 103.195 12.7266C103.195 10.5391 104.031 8.45313 105.703 6.46875C106.484 5.53125 107.414 4.67187 108.492 3.89062C109.586 3.09375 110.781 2.40625 112.078 1.82812C114.812 0.609375 117.656 0 120.609 0C123.906 0 126.492 0.78125 128.367 2.34375C129.18 3.03125 129.789 3.83594 130.195 4.75781C130.617 5.66406 130.828 6.625 130.828 7.64062C130.828 9.15625 130.422 10.5625 129.609 11.8594C128.703 13.2969 127.508 14.4297 126.023 15.2578C127.945 15.6016 129.406 16.5312 130.406 18.0469C131.266 19.375 131.695 21.0234 131.695 22.9922C131.695 23.8047 131.617 24.7031 131.461 25.6875C131.305 26.6719 131.07 27.6484 130.758 28.6172C129.992 31.0234 128.906 32.9062 127.5 34.2656C125.75 35.9688 123.648 36.8203 121.195 36.8203ZM138.164 36.2812C136.633 36.2812 135.422 35.8281 134.531 34.9219C133.531 33.9219 133.031 32.4609 133.031 30.5391C133.031 29.6328 133.156 28.5859 133.406 27.3984L138.539 3.35156L145.641 2.39062L140.133 28.3125C140.008 28.7188 139.945 29.2344 139.945 29.8594C139.945 30.5156 140.094 30.9766 140.391 31.2422C140.703 31.5078 141.203 31.6406 141.891 31.6406C142.359 31.6406 142.812 31.5391 143.25 31.3359C143.703 31.1172 144.117 30.8203 144.492 30.4453C145.258 29.6797 145.836 28.6641 146.227 27.3984H148.242C147.383 29.8203 146.305 31.75 145.008 33.1875C143.914 34.3594 142.68 35.2031 141.305 35.7188C140.305 36.0938 139.258 36.2812 138.164 36.2812ZM153.258 36.1875C150.883 36.1875 149.047 35.6094 147.75 34.4531C146.297 33.1719 145.57 31.2266 145.57 28.6172C145.57 27.6328 145.672 26.5469 145.875 25.3594C146.078 24.1562 146.391 22.9453 146.812 21.7266C147.781 18.8203 149.164 16.5 150.961 14.7656C153.133 12.6406 155.719 11.5781 158.719 11.5781C162.828 11.5781 164.883 14.1328 164.883 19.2422V19.2891C164.977 19.3203 165.055 19.3359 165.117 19.3359H165.398C166.461 19.3359 167.719 19.0391 169.172 18.4453C170.453 17.9141 171.664 17.25 172.805 16.4531L173.227 17.7656C172.289 18.75 171.078 19.5859 169.594 20.2734C168.125 20.9609 166.5 21.4531 164.719 21.75C164.531 23.9219 164.109 25.9062 163.453 27.7031C162.797 29.4844 161.953 31.0156 160.922 32.2969C159.906 33.5469 158.742 34.5078 157.43 35.1797C156.117 35.8516 154.727 36.1875 153.258 36.1875ZM155.18 31.875C155.742 31.875 156.312 31.625 156.891 31.125C157.484 30.6094 158.039 29.8984 158.555 28.9922C159.07 28.0859 159.516 27.0234 159.891 25.8047C160.266 24.5859 160.547 23.2812 160.734 21.8906C160.266 21.7656 159.93 21.5312 159.727 21.1875C159.539 20.8438 159.445 20.4062 159.445 19.875C159.445 19.2188 159.578 18.6719 159.844 18.2344C160.109 17.7969 160.477 17.4766 160.945 17.2734C160.883 16.2578 160.719 15.5312 160.453 15.0938C160.312 14.875 160.133 14.7188 159.914 14.625C159.711 14.5312 159.445 14.4844 159.117 14.4844C158.039 14.4844 156.984 15.2969 155.953 16.9219C155 18.3906 154.219 20.2031 153.609 22.3594C153.016 24.4688 152.719 26.3438 152.719 27.9844C152.719 28.7812 152.758 29.4297 152.836 29.9297C152.93 30.4297 153.078 30.8203 153.281 31.1016C153.469 31.3828 153.711 31.5859 154.008 31.7109C154.305 31.8203 154.695 31.875 155.18 31.875ZM175.828 48C175.078 48 174.375 47.8984 173.719 47.6953C173.078 47.5078 172.523 47.2188 172.055 46.8281C171.555 46.4375 171.164 45.9453 170.883 45.3516C170.602 44.7734 170.461 44.1016 170.461 43.3359C170.461 41.5234 171.312 39.9688 173.016 38.6719C174.297 37.7188 176.055 36.8906 178.289 36.1875L178.875 33.6562C177.234 35.4062 175.312 36.2812 173.109 36.2812C171.281 36.2812 169.805 35.7109 168.68 34.5703C167.367 33.2266 166.711 31.2266 166.711 28.5703C166.711 27.4453 166.828 26.2578 167.062 25.0078C167.281 23.7578 167.609 22.5234 168.047 21.3047C169.047 18.5547 170.414 16.3359 172.148 14.6484C174.148 12.7266 176.453 11.7656 179.062 11.7656C180.359 11.7656 181.328 11.9922 181.969 12.4453C182.625 12.8828 182.953 13.4688 182.953 14.2031V14.4844L183.469 12H190.383L185.625 34.2656C187.141 33.7656 188.352 33.0156 189.258 32.0156C190.242 30.9375 191.047 29.3984 191.672 27.3984H193.688C192.828 30.2422 191.547 32.4375 189.844 33.9844C188.594 35.1094 187.047 35.9062 185.203 36.375L184.477 39.8438C183.867 42.9062 182.648 45.125 180.82 46.5C179.492 47.5 177.828 48 175.828 48ZM176.227 31.6406C176.914 31.6406 177.641 31.3203 178.406 30.6797C179.234 29.9609 179.789 29.0312 180.07 27.8906L182.508 16.5234C182.508 16.3672 182.469 16.1875 182.391 15.9844C182.328 15.7812 182.234 15.5938 182.109 15.4219C181.734 14.9688 181.211 14.7422 180.539 14.7422C179.898 14.7422 179.273 14.9531 178.664 15.375C178.07 15.7969 177.508 16.3828 176.977 17.1328C176.039 18.4922 175.266 20.2656 174.656 22.4531C174.375 23.4219 174.164 24.3828 174.023 25.3359C173.883 26.2734 173.812 27.125 173.812 27.8906C173.812 29.4844 174.109 30.5625 174.703 31.125C174.906 31.3438 175.133 31.4844 175.383 31.5469C175.633 31.6094 175.914 31.6406 176.227 31.6406ZM174.727 44.25C175.227 44.25 175.742 43.8984 176.273 43.1953C176.805 42.5078 177.219 41.4375 177.516 39.9844L177.797 38.6016C176.344 39.1484 175.258 39.7031 174.539 40.2656C173.586 40.9844 173.109 41.7891 173.109 42.6797C173.109 43.1016 173.242 43.4531 173.508 43.7344C173.805 44.0781 174.211 44.25 174.727 44.25Z" fill="white"/>
</svg>
