<svg width="26" height="26" viewBox="0 0 26 26" fill="none" xmlns="http://www.w3.org/2000/svg">
<path d="M12.803 0C19.8741 0 25.6061 5.73192 25.6061 12.803C25.6061 19.8741 19.8741 25.6061 12.803 25.6061C5.73192 25.6061 0 19.8741 0 12.803C0 5.73192 5.73192 0 12.803 0ZM12.803 5.12121C12.4635 5.12121 12.1378 5.2561 11.8977 5.4962C11.6576 5.73631 11.5227 6.06196 11.5227 6.40152V12.803C11.5228 13.1426 11.6577 13.4682 11.8979 13.7082L15.7388 17.5491C15.9802 17.7823 16.3036 17.9114 16.6393 17.9085C16.975 17.9055 17.2961 17.7709 17.5335 17.5335C17.7709 17.2961 17.9055 16.975 17.9085 16.6393C17.9114 16.3036 17.7823 15.9802 17.5491 15.7388L14.0833 12.273V6.40152C14.0833 6.06196 13.9484 5.73631 13.7083 5.4962C13.4682 5.2561 13.1426 5.12121 12.803 5.12121Z" fill="#5C5C5D"/>
</svg>
